<?xml version="1.0" encoding="UTF-8" standalone="no"?>
<!-- Created with Inkscape (http://www.inkscape.org/) -->

<svg
   xmlns:dc="http://purl.org/dc/elements/1.1/"
   xmlns:cc="http://creativecommons.org/ns#"
   xmlns:rdf="http://www.w3.org/1999/02/22-rdf-syntax-ns#"
   xmlns:svg="http://www.w3.org/2000/svg"
   xmlns="http://www.w3.org/2000/svg"
   xmlns:sodipodi="http://sodipodi.sourceforge.net/DTD/sodipodi-0.dtd"
   xmlns:inkscape="http://www.inkscape.org/namespaces/inkscape"
   width="500"
   height="300"
   id="svg2"
   version="1.1"
   inkscape:version="0.48.4 r9939"
   sodipodi:docname="New document 1"
   inkscape:export-filename="/media/Limbo/python/python27/pyDOE/doc/_static/lhs_custom_distribution.png"
   inkscape:export-xdpi="90"
   inkscape:export-ydpi="90">
  <sodipodi:namedview
     id="base"
     pagecolor="#ffffff"
     bordercolor="#666666"
     borderopacity="1.0"
     inkscape:pageopacity="0.0"
     inkscape:pageshadow="2"
     inkscape:zoom="1"
     inkscape:cx="250"
     inkscape:cy="150"
     inkscape:document-units="px"
     inkscape:current-layer="layer1"
     showgrid="false"
     inkscape:window-width="1575"
     inkscape:window-height="880"
     inkscape:window-x="23"
     inkscape:window-y="-3"
     inkscape:window-maximized="1" />
  <defs
     id="defs4">
    <marker
       style="overflow:visible"
       id="DiamondL"
       refX="0.0"
       refY="0.0"
       orient="auto"
       inkscape:stockid="DiamondL">
      <path
         transform="scale(0.8)"
         style="fill-rule:evenodd;stroke:#000000;stroke-width:1.0pt"
         d="M 0,-7.0710768 L -7.0710894,0 L 0,7.0710589 L 7.0710462,0 L 0,-7.0710768 z "
         id="path4144" />
    </marker>
    <marker
       style="overflow:visible"
       id="SquareL"
       refX="0.0"
       refY="0.0"
       orient="auto"
       inkscape:stockid="SquareL">
      <path
         transform="scale(0.8)"
         style="fill-rule:evenodd;stroke:#000000;stroke-width:1.0pt"
         d="M -5.0,-5.0 L -5.0,5.0 L 5.0,5.0 L 5.0,-5.0 L -5.0,-5.0 z "
         id="path4135" />
    </marker>
    <marker
       style="overflow:visible"
       id="DotL"
       refX="0.0"
       refY="0.0"
       orient="auto"
       inkscape:stockid="DotL">
      <path
         transform="scale(0.8) translate(7.4, 1)"
         style="fill-rule:evenodd;stroke:#000000;stroke-width:1.0pt"
         d="M -2.5,-1.0 C -2.5,1.7600000 -4.7400000,4.0 -7.5,4.0 C -10.260000,4.0 -12.5,1.7600000 -12.5,-1.0 C -12.5,-3.7600000 -10.260000,-6.0 -7.5,-6.0 C -4.7400000,-6.0 -2.5,-3.7600000 -2.5,-1.0 z "
         id="path4126" />
    </marker>
    <marker
       style="overflow:visible"
       id="Arrow1Lstart"
       refX="0.0"
       refY="0.0"
       orient="auto"
       inkscape:stockid="Arrow1Lstart">
      <path
         transform="scale(0.8) translate(12.5,0)"
         style="fill-rule:evenodd;stroke:#000000;stroke-width:1.0pt"
         d="M 0.0,0.0 L 5.0,-5.0 L -12.5,0.0 L 5.0,5.0 L 0.0,0.0 z "
         id="path4065" />
    </marker>
    <marker
       style="overflow:visible"
       id="Arrow1Lstartx"
       refX="0.0"
       refY="0.0"
       orient="auto"
       inkscape:stockid="Arrow1Lstartx">
      <path
         transform="scale(0.8) translate(12.5,0)"
         style="stroke:#ff0000;stroke-width:1.0pt;fill:#ff0000;fill-rule:evenodd"
         d="M 0.0,0.0 L 5.0,-5.0 L -12.5,0.0 L 5.0,5.0 L 0.0,0.0 z "
         id="path4859" />
    </marker>
    <marker
       style="overflow:visible"
       id="Arrow1LstartY"
       refX="0.0"
       refY="0.0"
       orient="auto"
       inkscape:stockid="Arrow1LstartY">
      <path
         transform="scale(0.8) translate(12.5,0)"
         style="stroke:#ff0000;stroke-width:1.0pt;fill:#ff0000;fill-rule:evenodd"
         d="M 0.0,0.0 L 5.0,-5.0 L -12.5,0.0 L 5.0,5.0 L 0.0,0.0 z "
         id="path4862" />
    </marker>
    <marker
       style="overflow:visible"
       id="Arrow1LstartT"
       refX="0.0"
       refY="0.0"
       orient="auto"
       inkscape:stockid="Arrow1LstartT">
      <path
         transform="scale(0.8) translate(12.5,0)"
         style="stroke:#ff0000;stroke-width:1.0pt;fill:#ff0000;fill-rule:evenodd"
         d="M 0.0,0.0 L 5.0,-5.0 L -12.5,0.0 L 5.0,5.0 L 0.0,0.0 z "
         id="path4865" />
    </marker>
    <marker
       style="overflow:visible"
       id="Arrow1Lstartc"
       refX="0.0"
       refY="0.0"
       orient="auto"
       inkscape:stockid="Arrow1Lstartc">
      <path
         transform="scale(0.8) translate(12.5,0)"
         style="stroke:#ff0000;stroke-width:1.0pt;fill:#ff0000;fill-rule:evenodd"
         d="M 0.0,0.0 L 5.0,-5.0 L -12.5,0.0 L 5.0,5.0 L 0.0,0.0 z "
         id="path4868" />
    </marker>
    <marker
       style="overflow:visible"
       id="Arrow1Lstart5"
       refX="0.0"
       refY="0.0"
       orient="auto"
       inkscape:stockid="Arrow1Lstart5">
      <path
         transform="scale(0.8) translate(12.5,0)"
         style="stroke:#ff0000;stroke-width:1.0pt;fill:#ff0000;fill-rule:evenodd"
         d="M 0.0,0.0 L 5.0,-5.0 L -12.5,0.0 L 5.0,5.0 L 0.0,0.0 z "
         id="path4871" />
    </marker>
    <marker
       style="overflow:visible"
       id="Arrow1Lstart8"
       refX="0.0"
       refY="0.0"
       orient="auto"
       inkscape:stockid="Arrow1Lstart8">
      <path
         transform="scale(0.8) translate(12.5,0)"
         style="stroke:#ff0000;stroke-width:1.0pt;fill:#ff0000;fill-rule:evenodd"
         d="M 0.0,0.0 L 5.0,-5.0 L -12.5,0.0 L 5.0,5.0 L 0.0,0.0 z "
         id="path4874" />
    </marker>
    <marker
       style="overflow:visible"
       id="Arrow1LstartTN"
       refX="0.0"
       refY="0.0"
       orient="auto"
       inkscape:stockid="Arrow1LstartTN">
      <path
         transform="scale(0.8) translate(12.5,0)"
         style="stroke:#ff0000;stroke-width:1.0pt;fill:#ff0000;fill-rule:evenodd"
         d="M 0.0,0.0 L 5.0,-5.0 L -12.5,0.0 L 5.0,5.0 L 0.0,0.0 z "
         id="path4877" />
    </marker>
    <marker
       style="overflow:visible"
       id="Arrow1LstartX"
       refX="0.0"
       refY="0.0"
       orient="auto"
       inkscape:stockid="Arrow1LstartX">
      <path
         transform="scale(0.8) translate(12.5,0)"
         style="stroke:#ff0000;stroke-width:1.0pt;fill:#ff0000;fill-rule:evenodd"
         d="M 0.0,0.0 L 5.0,-5.0 L -12.5,0.0 L 5.0,5.0 L 0.0,0.0 z "
         id="path4880" />
    </marker>
    <marker
       style="overflow:visible"
       id="Arrow1LstartxP"
       refX="0.0"
       refY="0.0"
       orient="auto"
       inkscape:stockid="Arrow1LstartxP">
      <path
         transform="scale(0.8) translate(12.5,0)"
         style="fill-rule:evenodd;stroke:#ff0000;stroke-width:1.0pt;fill:#ff0000"
         d="M 0.0,0.0 L 5.0,-5.0 L -12.5,0.0 L 5.0,5.0 L 0.0,0.0 z "
         id="path5687" />
    </marker>
    <marker
       style="overflow:visible"
       id="DotLl"
       refX="0.0"
       refY="0.0"
       orient="auto"
       inkscape:stockid="DotLl">
      <path
         transform="scale(0.8) translate(7.4, 1)"
         style="stroke:#ff0000;stroke-width:1.0pt;fill:#ff0000;fill-rule:evenodd"
         d="M -2.5,-1.0 C -2.5,1.7600000 -4.7400000,4.0 -7.5,4.0 C -10.260000,4.0 -12.5,1.7600000 -12.5,-1.0 C -12.5,-3.7600000 -10.260000,-6.0 -7.5,-6.0 C -4.7400000,-6.0 -2.5,-3.7600000 -2.5,-1.0 z "
         id="path5690" />
    </marker>
    <marker
       style="overflow:visible"
       id="Arrow1LstartYC"
       refX="0.0"
       refY="0.0"
       orient="auto"
       inkscape:stockid="Arrow1LstartYC">
      <path
         transform="scale(0.8) translate(12.5,0)"
         style="fill-rule:evenodd;stroke:#ff0000;stroke-width:1.0pt;fill:#ff0000"
         d="M 0.0,0.0 L 5.0,-5.0 L -12.5,0.0 L 5.0,5.0 L 0.0,0.0 z "
         id="path5693" />
    </marker>
    <marker
       style="overflow:visible"
       id="DotL5"
       refX="0.0"
       refY="0.0"
       orient="auto"
       inkscape:stockid="DotL5">
      <path
         transform="scale(0.8) translate(7.4, 1)"
         style="stroke:#ff0000;stroke-width:1.0pt;fill:#ff0000;fill-rule:evenodd"
         d="M -2.5,-1.0 C -2.5,1.7600000 -4.7400000,4.0 -7.5,4.0 C -10.260000,4.0 -12.5,1.7600000 -12.5,-1.0 C -12.5,-3.7600000 -10.260000,-6.0 -7.5,-6.0 C -4.7400000,-6.0 -2.5,-3.7600000 -2.5,-1.0 z "
         id="path5696" />
    </marker>
    <marker
       style="overflow:visible"
       id="Arrow1LstartT5"
       refX="0.0"
       refY="0.0"
       orient="auto"
       inkscape:stockid="Arrow1LstartT5">
      <path
         transform="scale(0.8) translate(12.5,0)"
         style="fill-rule:evenodd;stroke:#ff0000;stroke-width:1.0pt;fill:#ff0000"
         d="M 0.0,0.0 L 5.0,-5.0 L -12.5,0.0 L 5.0,5.0 L 0.0,0.0 z "
         id="path5699" />
    </marker>
    <marker
       style="overflow:visible"
       id="DotLU"
       refX="0.0"
       refY="0.0"
       orient="auto"
       inkscape:stockid="DotLU">
      <path
         transform="scale(0.8) translate(7.4, 1)"
         style="stroke:#ff0000;stroke-width:1.0pt;fill:#ff0000;fill-rule:evenodd"
         d="M -2.5,-1.0 C -2.5,1.7600000 -4.7400000,4.0 -7.5,4.0 C -10.260000,4.0 -12.5,1.7600000 -12.5,-1.0 C -12.5,-3.7600000 -10.260000,-6.0 -7.5,-6.0 C -4.7400000,-6.0 -2.5,-3.7600000 -2.5,-1.0 z "
         id="path5702" />
    </marker>
    <marker
       style="overflow:visible"
       id="Arrow1Lstartcl"
       refX="0.0"
       refY="0.0"
       orient="auto"
       inkscape:stockid="Arrow1Lstartcl">
      <path
         transform="scale(0.8) translate(12.5,0)"
         style="fill-rule:evenodd;stroke:#ff0000;stroke-width:1.0pt;fill:#ff0000"
         d="M 0.0,0.0 L 5.0,-5.0 L -12.5,0.0 L 5.0,5.0 L 0.0,0.0 z "
         id="path5705" />
    </marker>
    <marker
       style="overflow:visible"
       id="DotLj"
       refX="0.0"
       refY="0.0"
       orient="auto"
       inkscape:stockid="DotLj">
      <path
         transform="scale(0.8) translate(7.4, 1)"
         style="stroke:#ff0000;stroke-width:1.0pt;fill:#ff0000;fill-rule:evenodd"
         d="M -2.5,-1.0 C -2.5,1.7600000 -4.7400000,4.0 -7.5,4.0 C -10.260000,4.0 -12.5,1.7600000 -12.5,-1.0 C -12.5,-3.7600000 -10.260000,-6.0 -7.5,-6.0 C -4.7400000,-6.0 -2.5,-3.7600000 -2.5,-1.0 z "
         id="path5708" />
    </marker>
    <marker
       style="overflow:visible"
       id="Arrow1Lstart5q"
       refX="0.0"
       refY="0.0"
       orient="auto"
       inkscape:stockid="Arrow1Lstart5q">
      <path
         transform="scale(0.8) translate(12.5,0)"
         style="fill-rule:evenodd;stroke:#ff0000;stroke-width:1.0pt;fill:#ff0000"
         d="M 0.0,0.0 L 5.0,-5.0 L -12.5,0.0 L 5.0,5.0 L 0.0,0.0 z "
         id="path5711" />
    </marker>
    <marker
       style="overflow:visible"
       id="DotLb"
       refX="0.0"
       refY="0.0"
       orient="auto"
       inkscape:stockid="DotLb">
      <path
         transform="scale(0.8) translate(7.4, 1)"
         style="stroke:#ff0000;stroke-width:1.0pt;fill:#ff0000;fill-rule:evenodd"
         d="M -2.5,-1.0 C -2.5,1.7600000 -4.7400000,4.0 -7.5,4.0 C -10.260000,4.0 -12.5,1.7600000 -12.5,-1.0 C -12.5,-3.7600000 -10.260000,-6.0 -7.5,-6.0 C -4.7400000,-6.0 -2.5,-3.7600000 -2.5,-1.0 z "
         id="path5714" />
    </marker>
    <marker
       style="overflow:visible"
       id="Arrow1Lstart8I"
       refX="0.0"
       refY="0.0"
       orient="auto"
       inkscape:stockid="Arrow1Lstart8I">
      <path
         transform="scale(0.8) translate(12.5,0)"
         style="fill-rule:evenodd;stroke:#ff0000;stroke-width:1.0pt;fill:#ff0000"
         d="M 0.0,0.0 L 5.0,-5.0 L -12.5,0.0 L 5.0,5.0 L 0.0,0.0 z "
         id="path5717" />
    </marker>
    <marker
       style="overflow:visible"
       id="DotLH"
       refX="0.0"
       refY="0.0"
       orient="auto"
       inkscape:stockid="DotLH">
      <path
         transform="scale(0.8) translate(7.4, 1)"
         style="stroke:#ff0000;stroke-width:1.0pt;fill:#ff0000;fill-rule:evenodd"
         d="M -2.5,-1.0 C -2.5,1.7600000 -4.7400000,4.0 -7.5,4.0 C -10.260000,4.0 -12.5,1.7600000 -12.5,-1.0 C -12.5,-3.7600000 -10.260000,-6.0 -7.5,-6.0 C -4.7400000,-6.0 -2.5,-3.7600000 -2.5,-1.0 z "
         id="path5720" />
    </marker>
    <marker
       style="overflow:visible"
       id="Arrow1LstartTN9"
       refX="0.0"
       refY="0.0"
       orient="auto"
       inkscape:stockid="Arrow1LstartTN9">
      <path
         transform="scale(0.8) translate(12.5,0)"
         style="fill-rule:evenodd;stroke:#ff0000;stroke-width:1.0pt;fill:#ff0000"
         d="M 0.0,0.0 L 5.0,-5.0 L -12.5,0.0 L 5.0,5.0 L 0.0,0.0 z "
         id="path5723" />
    </marker>
    <marker
       style="overflow:visible"
       id="DotL0"
       refX="0.0"
       refY="0.0"
       orient="auto"
       inkscape:stockid="DotL0">
      <path
         transform="scale(0.8) translate(7.4, 1)"
         style="stroke:#ff0000;stroke-width:1.0pt;fill:#ff0000;fill-rule:evenodd"
         d="M -2.5,-1.0 C -2.5,1.7600000 -4.7400000,4.0 -7.5,4.0 C -10.260000,4.0 -12.5,1.7600000 -12.5,-1.0 C -12.5,-3.7600000 -10.260000,-6.0 -7.5,-6.0 C -4.7400000,-6.0 -2.5,-3.7600000 -2.5,-1.0 z "
         id="path5726" />
    </marker>
    <marker
       style="overflow:visible"
       id="Arrow1LstartXj"
       refX="0.0"
       refY="0.0"
       orient="auto"
       inkscape:stockid="Arrow1LstartXj">
      <path
         transform="scale(0.8) translate(12.5,0)"
         style="fill-rule:evenodd;stroke:#ff0000;stroke-width:1.0pt;fill:#ff0000"
         d="M 0.0,0.0 L 5.0,-5.0 L -12.5,0.0 L 5.0,5.0 L 0.0,0.0 z "
         id="path5729" />
    </marker>
    <marker
       style="overflow:visible"
       id="DotLg"
       refX="0.0"
       refY="0.0"
       orient="auto"
       inkscape:stockid="DotLg">
      <path
         transform="scale(0.8) translate(7.4, 1)"
         style="stroke:#ff0000;stroke-width:1.0pt;fill:#ff0000;fill-rule:evenodd"
         d="M -2.5,-1.0 C -2.5,1.7600000 -4.7400000,4.0 -7.5,4.0 C -10.260000,4.0 -12.5,1.7600000 -12.5,-1.0 C -12.5,-3.7600000 -10.260000,-6.0 -7.5,-6.0 C -4.7400000,-6.0 -2.5,-3.7600000 -2.5,-1.0 z "
         id="path5732" />
    </marker>
    <marker
       style="overflow:visible"
       id="Arrow1LstartxPe"
       refX="0.0"
       refY="0.0"
       orient="auto"
       inkscape:stockid="Arrow1LstartxPe">
      <path
         transform="scale(0.8) translate(12.5,0)"
         style="stroke:#0000ff;stroke-width:1.0pt;fill:#0000ff;fill-rule:evenodd"
         d="M 0.0,0.0 L 5.0,-5.0 L -12.5,0.0 L 5.0,5.0 L 0.0,0.0 z "
         id="path5983" />
    </marker>
    <marker
       style="overflow:visible"
       id="DotLlL"
       refX="0.0"
       refY="0.0"
       orient="auto"
       inkscape:stockid="DotLlL">
      <path
         transform="scale(0.8) translate(7.4, 1)"
         style="fill-rule:evenodd;stroke:#0000ff;stroke-width:1.0pt;fill:#0000ff"
         d="M -2.5,-1.0 C -2.5,1.7600000 -4.7400000,4.0 -7.5,4.0 C -10.260000,4.0 -12.5,1.7600000 -12.5,-1.0 C -12.5,-3.7600000 -10.260000,-6.0 -7.5,-6.0 C -4.7400000,-6.0 -2.5,-3.7600000 -2.5,-1.0 z "
         id="path5986" />
    </marker>
    <marker
       style="overflow:visible"
       id="Arrow1LstartYC4"
       refX="0.0"
       refY="0.0"
       orient="auto"
       inkscape:stockid="Arrow1LstartYC4">
      <path
         transform="scale(0.8) translate(12.5,0)"
         style="stroke:#0000ff;stroke-width:1.0pt;fill:#0000ff;fill-rule:evenodd"
         d="M 0.0,0.0 L 5.0,-5.0 L -12.5,0.0 L 5.0,5.0 L 0.0,0.0 z "
         id="path5989" />
    </marker>
    <marker
       style="overflow:visible"
       id="DotL5K"
       refX="0.0"
       refY="0.0"
       orient="auto"
       inkscape:stockid="DotL5K">
      <path
         transform="scale(0.8) translate(7.4, 1)"
         style="fill-rule:evenodd;stroke:#0000ff;stroke-width:1.0pt;fill:#0000ff"
         d="M -2.5,-1.0 C -2.5,1.7600000 -4.7400000,4.0 -7.5,4.0 C -10.260000,4.0 -12.5,1.7600000 -12.5,-1.0 C -12.5,-3.7600000 -10.260000,-6.0 -7.5,-6.0 C -4.7400000,-6.0 -2.5,-3.7600000 -2.5,-1.0 z "
         id="path5992" />
    </marker>
    <marker
       style="overflow:visible"
       id="Arrow1LstartT56"
       refX="0.0"
       refY="0.0"
       orient="auto"
       inkscape:stockid="Arrow1LstartT56">
      <path
         transform="scale(0.8) translate(12.5,0)"
         style="stroke:#0000ff;stroke-width:1.0pt;fill:#0000ff;fill-rule:evenodd"
         d="M 0.0,0.0 L 5.0,-5.0 L -12.5,0.0 L 5.0,5.0 L 0.0,0.0 z "
         id="path5995" />
    </marker>
    <marker
       style="overflow:visible"
       id="DotLU4"
       refX="0.0"
       refY="0.0"
       orient="auto"
       inkscape:stockid="DotLU4">
      <path
         transform="scale(0.8) translate(7.4, 1)"
         style="fill-rule:evenodd;stroke:#0000ff;stroke-width:1.0pt;fill:#0000ff"
         d="M -2.5,-1.0 C -2.5,1.7600000 -4.7400000,4.0 -7.5,4.0 C -10.260000,4.0 -12.5,1.7600000 -12.5,-1.0 C -12.5,-3.7600000 -10.260000,-6.0 -7.5,-6.0 C -4.7400000,-6.0 -2.5,-3.7600000 -2.5,-1.0 z "
         id="path5998" />
    </marker>
    <marker
       style="overflow:visible"
       id="Arrow1Lstartclj"
       refX="0.0"
       refY="0.0"
       orient="auto"
       inkscape:stockid="Arrow1Lstartclj">
      <path
         transform="scale(0.8) translate(12.5,0)"
         style="stroke:#0000ff;stroke-width:1.0pt;fill:#0000ff;fill-rule:evenodd"
         d="M 0.0,0.0 L 5.0,-5.0 L -12.5,0.0 L 5.0,5.0 L 0.0,0.0 z "
         id="path6001" />
    </marker>
    <marker
       style="overflow:visible"
       id="DotLjx"
       refX="0.0"
       refY="0.0"
       orient="auto"
       inkscape:stockid="DotLjx">
      <path
         transform="scale(0.8) translate(7.4, 1)"
         style="fill-rule:evenodd;stroke:#0000ff;stroke-width:1.0pt;fill:#0000ff"
         d="M -2.5,-1.0 C -2.5,1.7600000 -4.7400000,4.0 -7.5,4.0 C -10.260000,4.0 -12.5,1.7600000 -12.5,-1.0 C -12.5,-3.7600000 -10.260000,-6.0 -7.5,-6.0 C -4.7400000,-6.0 -2.5,-3.7600000 -2.5,-1.0 z "
         id="path6004" />
    </marker>
    <marker
       style="overflow:visible"
       id="Arrow1Lstart5qH"
       refX="0.0"
       refY="0.0"
       orient="auto"
       inkscape:stockid="Arrow1Lstart5qH">
      <path
         transform="scale(0.8) translate(12.5,0)"
         style="stroke:#0000ff;stroke-width:1.0pt;fill:#0000ff;fill-rule:evenodd"
         d="M 0.0,0.0 L 5.0,-5.0 L -12.5,0.0 L 5.0,5.0 L 0.0,0.0 z "
         id="path6007" />
    </marker>
    <marker
       style="overflow:visible"
       id="DotLbX"
       refX="0.0"
       refY="0.0"
       orient="auto"
       inkscape:stockid="DotLbX">
      <path
         transform="scale(0.8) translate(7.4, 1)"
         style="fill-rule:evenodd;stroke:#0000ff;stroke-width:1.0pt;fill:#0000ff"
         d="M -2.5,-1.0 C -2.5,1.7600000 -4.7400000,4.0 -7.5,4.0 C -10.260000,4.0 -12.5,1.7600000 -12.5,-1.0 C -12.5,-3.7600000 -10.260000,-6.0 -7.5,-6.0 C -4.7400000,-6.0 -2.5,-3.7600000 -2.5,-1.0 z "
         id="path6010" />
    </marker>
    <marker
       style="overflow:visible"
       id="Arrow1Lstart8Id"
       refX="0.0"
       refY="0.0"
       orient="auto"
       inkscape:stockid="Arrow1Lstart8Id">
      <path
         transform="scale(0.8) translate(12.5,0)"
         style="stroke:#0000ff;stroke-width:1.0pt;fill:#0000ff;fill-rule:evenodd"
         d="M 0.0,0.0 L 5.0,-5.0 L -12.5,0.0 L 5.0,5.0 L 0.0,0.0 z "
         id="path6013" />
    </marker>
    <marker
       style="overflow:visible"
       id="DotLHB"
       refX="0.0"
       refY="0.0"
       orient="auto"
       inkscape:stockid="DotLHB">
      <path
         transform="scale(0.8) translate(7.4, 1)"
         style="fill-rule:evenodd;stroke:#0000ff;stroke-width:1.0pt;fill:#0000ff"
         d="M -2.5,-1.0 C -2.5,1.7600000 -4.7400000,4.0 -7.5,4.0 C -10.260000,4.0 -12.5,1.7600000 -12.5,-1.0 C -12.5,-3.7600000 -10.260000,-6.0 -7.5,-6.0 C -4.7400000,-6.0 -2.5,-3.7600000 -2.5,-1.0 z "
         id="path6016" />
    </marker>
    <marker
       style="overflow:visible"
       id="Arrow1LstartTN9U"
       refX="0.0"
       refY="0.0"
       orient="auto"
       inkscape:stockid="Arrow1LstartTN9U">
      <path
         transform="scale(0.8) translate(12.5,0)"
         style="stroke:#0000ff;stroke-width:1.0pt;fill:#0000ff;fill-rule:evenodd"
         d="M 0.0,0.0 L 5.0,-5.0 L -12.5,0.0 L 5.0,5.0 L 0.0,0.0 z "
         id="path6019" />
    </marker>
    <marker
       style="overflow:visible"
       id="DotL0O"
       refX="0.0"
       refY="0.0"
       orient="auto"
       inkscape:stockid="DotL0O">
      <path
         transform="scale(0.8) translate(7.4, 1)"
         style="fill-rule:evenodd;stroke:#0000ff;stroke-width:1.0pt;fill:#0000ff"
         d="M -2.5,-1.0 C -2.5,1.7600000 -4.7400000,4.0 -7.5,4.0 C -10.260000,4.0 -12.5,1.7600000 -12.5,-1.0 C -12.5,-3.7600000 -10.260000,-6.0 -7.5,-6.0 C -4.7400000,-6.0 -2.5,-3.7600000 -2.5,-1.0 z "
         id="path6022" />
    </marker>
    <marker
       style="overflow:visible"
       id="Arrow1LstartXjW"
       refX="0.0"
       refY="0.0"
       orient="auto"
       inkscape:stockid="Arrow1LstartXjW">
      <path
         transform="scale(0.8) translate(12.5,0)"
         style="stroke:#0000ff;stroke-width:1.0pt;fill:#0000ff;fill-rule:evenodd"
         d="M 0.0,0.0 L 5.0,-5.0 L -12.5,0.0 L 5.0,5.0 L 0.0,0.0 z "
         id="path6025" />
    </marker>
    <marker
       style="overflow:visible"
       id="DotLgm"
       refX="0.0"
       refY="0.0"
       orient="auto"
       inkscape:stockid="DotLgm">
      <path
         transform="scale(0.8) translate(7.4, 1)"
         style="fill-rule:evenodd;stroke:#0000ff;stroke-width:1.0pt;fill:#0000ff"
         d="M -2.5,-1.0 C -2.5,1.7600000 -4.7400000,4.0 -7.5,4.0 C -10.260000,4.0 -12.5,1.7600000 -12.5,-1.0 C -12.5,-3.7600000 -10.260000,-6.0 -7.5,-6.0 C -4.7400000,-6.0 -2.5,-3.7600000 -2.5,-1.0 z "
         id="path6028" />
    </marker>
    <marker
       style="overflow:visible"
       id="DiamondLB"
       refX="0.0"
       refY="0.0"
       orient="auto"
       inkscape:stockid="DiamondLB">
      <path
         transform="scale(0.8)"
         style="stroke:#00ff00;stroke-width:1.0pt;fill:#00ff00;fill-rule:evenodd"
         d="M 0,-7.0710768 L -7.0710894,0 L 0,7.0710589 L 7.0710462,0 L 0,-7.0710768 z "
         id="path7151" />
    </marker>
    <marker
       style="overflow:visible"
       id="DiamondLl"
       refX="0.0"
       refY="0.0"
       orient="auto"
       inkscape:stockid="DiamondLl">
      <path
         transform="scale(0.8)"
         style="stroke:#00ff00;stroke-width:1.0pt;fill:#00ff00;fill-rule:evenodd"
         d="M 0,-7.0710768 L -7.0710894,0 L 0,7.0710589 L 7.0710462,0 L 0,-7.0710768 z "
         id="path7154" />
    </marker>
    <marker
       style="overflow:visible"
       id="DiamondLJ"
       refX="0.0"
       refY="0.0"
       orient="auto"
       inkscape:stockid="DiamondLJ">
      <path
         transform="scale(0.8)"
         style="stroke:#00ff00;stroke-width:1.0pt;fill:#00ff00;fill-rule:evenodd"
         d="M 0,-7.0710768 L -7.0710894,0 L 0,7.0710589 L 7.0710462,0 L 0,-7.0710768 z "
         id="path7157" />
    </marker>
    <marker
       style="overflow:visible"
       id="DiamondLV"
       refX="0.0"
       refY="0.0"
       orient="auto"
       inkscape:stockid="DiamondLV">
      <path
         transform="scale(0.8)"
         style="stroke:#00ff00;stroke-width:1.0pt;fill:#00ff00;fill-rule:evenodd"
         d="M 0,-7.0710768 L -7.0710894,0 L 0,7.0710589 L 7.0710462,0 L 0,-7.0710768 z "
         id="path7160" />
    </marker>
    <marker
       style="overflow:visible"
       id="DiamondLz"
       refX="0.0"
       refY="0.0"
       orient="auto"
       inkscape:stockid="DiamondLz">
      <path
         transform="scale(0.8)"
         style="stroke:#00ff00;stroke-width:1.0pt;fill:#00ff00;fill-rule:evenodd"
         d="M 0,-7.0710768 L -7.0710894,0 L 0,7.0710589 L 7.0710462,0 L 0,-7.0710768 z "
         id="path7163" />
    </marker>
    <marker
       style="overflow:visible"
       id="DiamondLc"
       refX="0.0"
       refY="0.0"
       orient="auto"
       inkscape:stockid="DiamondLc">
      <path
         transform="scale(0.8)"
         style="stroke:#00ff00;stroke-width:1.0pt;fill:#00ff00;fill-rule:evenodd"
         d="M 0,-7.0710768 L -7.0710894,0 L 0,7.0710589 L 7.0710462,0 L 0,-7.0710768 z "
         id="path7166" />
    </marker>
    <marker
       style="overflow:visible"
       id="DiamondLJT"
       refX="0.0"
       refY="0.0"
       orient="auto"
       inkscape:stockid="DiamondLJT">
      <path
         transform="scale(0.8)"
         style="stroke:#00ff00;stroke-width:1.0pt;fill:#00ff00;fill-rule:evenodd"
         d="M 0,-7.0710768 L -7.0710894,0 L 0,7.0710589 L 7.0710462,0 L 0,-7.0710768 z "
         id="path7169" />
    </marker>
    <marker
       style="overflow:visible"
       id="DiamondLo"
       refX="0.0"
       refY="0.0"
       orient="auto"
       inkscape:stockid="DiamondLo">
      <path
         transform="scale(0.8)"
         style="stroke:#00ff00;stroke-width:1.0pt;fill:#00ff00;fill-rule:evenodd"
         d="M 0,-7.0710768 L -7.0710894,0 L 0,7.0710589 L 7.0710462,0 L 0,-7.0710768 z "
         id="path7172" />
    </marker>
  </defs>
  <metadata
     id="metadata7">
    <rdf:RDF>
      <cc:Work
         rdf:about="">
        <dc:format>image/svg+xml</dc:format>
        <dc:type
           rdf:resource="http://purl.org/dc/dcmitype/StillImage" />
        <dc:title></dc:title>
      </cc:Work>
    </rdf:RDF>
  </metadata>
  <g
     transform="translate(0,-752.36218)"
     id="layer1"
     inkscape:groupmode="layer"
     inkscape:label="Layer 1">
    <flowRoot
       transform="translate(0,852.36218)"
       style="font-size:40px;font-style:normal;font-weight:normal;line-height:125%;letter-spacing:0px;word-spacing:0px;fill:#000000;fill-opacity:1;stroke:none;font-family:Sans"
       id="flowRoot3817"
       xml:space="preserve"><flowRegion
         id="flowRegion3819"><rect
           y="9.9270077"
           x="22.481752"
           height="69.781021"
           width="21.89781"
           id="rect3821" /></flowRegion><flowPara
         id="flowPara3823" /></flowRoot>    <path
       inkscape:connector-curvature="0"
       id="path2985"
       d="m 59.285122,758.52418 0,257.01102 414.194508,0"
       style="fill:none;stroke:#000000;stroke-width:1px;stroke-linecap:butt;stroke-linejoin:miter;stroke-opacity:1" />
    <path
       sodipodi:nodetypes="csc"
       inkscape:connector-curvature="0"
       id="path2987"
       d="m 58.96128,1014.2035 c 103.56806,0 131.20009,-37.90232 206.58808,-113.29024 75.38799,-75.38799 106.01684,-120.78738 194.92585,-120.78738"
       style="fill:none;stroke:#0000ff;stroke-width:1px;stroke-linecap:butt;stroke-linejoin:miter;stroke-opacity:1" />
    <path
       sodipodi:nodetypes="cc"
       inkscape:connector-curvature="0"
       id="path3757"
       d="m 459.57504,779.7574 -400.643756,0"
       style="fill:none;stroke:#616161;stroke-width:1;stroke-linecap:butt;stroke-linejoin:miter;stroke-miterlimit:4;stroke-opacity:1;stroke-dasharray:none;stroke-dashoffset:0" />
    <path
       sodipodi:nodetypes="cc"
       style="fill:none;stroke:#616161;stroke-width:1;stroke-linecap:butt;stroke-linejoin:miter;stroke-miterlimit:4;stroke-opacity:1;stroke-dasharray:none;stroke-dashoffset:0"
       d="m 362.57896,809.16705 -303.647676,0"
       id="path3759"
       inkscape:connector-curvature="0" />
    <path
       sodipodi:nodetypes="cc"
       inkscape:connector-curvature="0"
       id="path3761"
       d="m 327.38475,838.57669 -268.453466,0"
       style="fill:none;stroke:#616161;stroke-width:1;stroke-linecap:butt;stroke-linejoin:miter;stroke-miterlimit:4;stroke-opacity:1;stroke-dasharray:none;stroke-dashoffset:0" />
    <path
       sodipodi:nodetypes="cc"
       style="fill:none;stroke:#616161;stroke-width:1;stroke-linecap:butt;stroke-linejoin:miter;stroke-miterlimit:4;stroke-opacity:1;stroke-dasharray:none;stroke-dashoffset:0"
       d="m 298.36752,867.98637 -239.436236,0"
       id="path3763"
       inkscape:connector-curvature="0" />
    <path
       sodipodi:nodetypes="cc"
       inkscape:connector-curvature="0"
       id="path3765"
       d="m 269.65829,897.39602 -210.727006,0"
       style="fill:none;stroke:#616161;stroke-width:1;stroke-linecap:butt;stroke-linejoin:miter;stroke-miterlimit:4;stroke-opacity:1;stroke-dasharray:none;stroke-dashoffset:0" />
    <path
       sodipodi:nodetypes="cc"
       style="fill:none;stroke:#616161;stroke-width:1;stroke-linecap:butt;stroke-linejoin:miter;stroke-miterlimit:4;stroke-opacity:1;stroke-dasharray:none;stroke-dashoffset:0"
       d="m 239.62654,926.80567 -180.695256,0"
       id="path3767"
       inkscape:connector-curvature="0" />
    <path
       sodipodi:nodetypes="cc"
       inkscape:connector-curvature="0"
       id="path3769"
       d="m 209.69734,956.21531 -150.766056,0"
       style="fill:none;stroke:#616161;stroke-width:1;stroke-linecap:butt;stroke-linejoin:miter;stroke-miterlimit:4;stroke-opacity:1;stroke-dasharray:none;stroke-dashoffset:0" />
    <path
       sodipodi:nodetypes="cc"
       style="fill:none;stroke:#616161;stroke-width:1;stroke-linecap:butt;stroke-linejoin:miter;stroke-miterlimit:4;stroke-opacity:1;stroke-dasharray:none;stroke-dashoffset:0"
       d="m 173.1725,985.62497 -114.241216,0"
       id="path3771"
       inkscape:connector-curvature="0" />
    <path
       sodipodi:nodetypes="csc"
       inkscape:connector-curvature="0"
       id="path3775"
       d="m 59.926849,1014.2132 c 119.498431,0 163.028831,-50.27606 209.768141,-50.27606 49.14855,0 80.7865,49.99526 189.20242,49.99526"
       style="fill:none;stroke:#00ff00;stroke-width:1px;stroke-linecap:butt;stroke-linejoin:miter;stroke-opacity:1" />
    <path
       inkscape:connector-curvature="0"
       id="path3777"
       d="m 459.64664,779.7574 0,234.4558"
       style="fill:none;stroke:#616161;stroke-width:1;stroke-linecap:butt;stroke-linejoin:miter;stroke-miterlimit:4;stroke-opacity:1;stroke-dasharray:none;stroke-dashoffset:0" />
    <path
       sodipodi:nodetypes="cc"
       style="fill:none;stroke:#616161;stroke-width:1;stroke-linecap:butt;stroke-linejoin:miter;stroke-miterlimit:4;stroke-opacity:1;stroke-dasharray:none;stroke-dashoffset:0"
       d="m 363.17629,809.12661 0,205.08659"
       id="path3779"
       inkscape:connector-curvature="0" />
    <path
       sodipodi:nodetypes="cc"
       inkscape:connector-curvature="0"
       id="path3781"
       d="m 327.39544,838.9936 0,175.2196"
       style="fill:none;stroke:#616161;stroke-width:1;stroke-linecap:butt;stroke-linejoin:miter;stroke-miterlimit:4;stroke-opacity:1;stroke-dasharray:none;stroke-dashoffset:0" />
    <path
       sodipodi:nodetypes="cc"
       style="fill:none;stroke:#616161;stroke-width:1;stroke-linecap:butt;stroke-linejoin:miter;stroke-miterlimit:4;stroke-opacity:1;stroke-dasharray:none;stroke-dashoffset:0"
       d="m 298.46448,867.36722 0,146.84598"
       id="path3783"
       inkscape:connector-curvature="0" />
    <path
       sodipodi:nodetypes="cc"
       inkscape:connector-curvature="0"
       id="path3785"
       d="m 269.69262,897.10977 0,117.10343"
       style="fill:none;stroke:#616161;stroke-width:1;stroke-linecap:butt;stroke-linejoin:miter;stroke-miterlimit:4;stroke-opacity:1;stroke-dasharray:none;stroke-dashoffset:0" />
    <path
       sodipodi:nodetypes="cc"
       style="fill:none;stroke:#616161;stroke-width:1;stroke-linecap:butt;stroke-linejoin:miter;stroke-miterlimit:4;stroke-opacity:1;stroke-dasharray:none;stroke-dashoffset:0"
       d="m 239.86292,926.60341 0,87.60979"
       id="path3787"
       inkscape:connector-curvature="0" />
    <path
       sodipodi:nodetypes="cc"
       inkscape:connector-curvature="0"
       id="path3789"
       d="m 209.73466,955.9726 0,58.2406"
       style="fill:none;stroke:#616161;stroke-width:1;stroke-linecap:butt;stroke-linejoin:miter;stroke-miterlimit:4;stroke-opacity:1;stroke-dasharray:none;stroke-dashoffset:0" />
    <path
       sodipodi:nodetypes="cc"
       style="fill:none;stroke:#616161;stroke-width:1;stroke-linecap:butt;stroke-linejoin:miter;stroke-miterlimit:4;stroke-opacity:1;stroke-dasharray:none;stroke-dashoffset:0"
       d="m 173.27207,985.34179 0,28.87141"
       id="path3791"
       inkscape:connector-curvature="0" />
    <text
       sodipodi:linespacing="125%"
       id="text3813"
       y="786.49127"
       x="38.989109"
       style="font-size:24.28642464px;font-style:normal;font-weight:normal;line-height:125%;letter-spacing:0px;word-spacing:0px;fill:#000000;fill-opacity:1;stroke:none;font-family:Sans"
       xml:space="preserve"><tspan
         style="font-style:italic;font-variant:normal;font-weight:normal;font-stretch:normal;font-family:TeX Gyre Pagella;-inkscape-font-specification:TeX Gyre Pagella Italic"
         y="786.49127"
         x="38.989109"
         id="tspan3815"
         sodipodi:role="line">1</tspan></text>
    <text
       xml:space="preserve"
       style="font-size:24.01277542px;font-style:normal;font-weight:normal;line-height:125%;letter-spacing:0px;word-spacing:0px;fill:#000000;fill-opacity:1;stroke:none;font-family:Sans"
       x="38.282547"
       y="1022.8218"
       id="text3825"
       sodipodi:linespacing="125%"><tspan
         sodipodi:role="line"
         id="tspan3827"
         x="38.282547"
         y="1022.8218"
         style="font-style:italic;font-variant:normal;font-weight:normal;font-stretch:normal;font-family:TeX Gyre Pagella;-inkscape-font-specification:TeX Gyre Pagella Italic">0</tspan></text>
    <text
       transform="matrix(0,-1,1,0,0,0)"
       sodipodi:linespacing="125%"
       id="text3829"
       y="26.903685"
       x="-974.6864"
       style="font-size:68.19628143px;font-style:normal;font-weight:normal;line-height:125%;letter-spacing:0px;word-spacing:0px;fill:#000000;fill-opacity:1;stroke:none;font-family:Sans"
       xml:space="preserve"><tspan
         style="font-size:15.34416294px;font-style:normal;font-variant:normal;font-weight:normal;font-stretch:normal;font-family:TeX Gyre Pagella;-inkscape-font-specification:TeX Gyre Pagella"
         y="26.903685"
         x="-974.6864"
         id="tspan3831"
         sodipodi:role="line">LHS Interval Sampling</tspan></text>
    <text
       sodipodi:linespacing="125%"
       id="text3833"
       y="882.42517"
       x="-5.9796286"
       style="font-size:68.19628143px;font-style:normal;font-weight:normal;line-height:125%;letter-spacing:0px;word-spacing:0px;fill:#000000;fill-opacity:1;stroke:none;font-family:Sans"
       xml:space="preserve"><tspan
         y="882.42517"
         x="-5.9796286"
         id="tspan3835"
         sodipodi:role="line" /></text>
    <path
       sodipodi:nodetypes="cc"
       style="fill:none;stroke:#0000ff;stroke-width:0.99999988;stroke-linecap:butt;stroke-linejoin:miter;stroke-miterlimit:4;stroke-opacity:1;stroke-dasharray:1, 2.00000003;stroke-dashoffset:0;marker-start:url(#Arrow1LstartXjW);marker-end:url(#DotLgm)"
       d="m 147.36203,997.02591 -83.13222,0"
       id="path3839"
       inkscape:connector-curvature="0" />
    <path
       inkscape:connector-curvature="0"
       id="path3841"
       d="m 187.25858,973.68834 -123.02877,0"
       style="fill:none;stroke:#0000ff;stroke-width:0.99999988;stroke-linecap:butt;stroke-linejoin:miter;stroke-miterlimit:4;stroke-opacity:1;stroke-dasharray:1, 2.00000003;stroke-dashoffset:0;marker-start:url(#Arrow1LstartYC4);marker-end:url(#DotL5K)"
       sodipodi:nodetypes="cc" />
    <path
       sodipodi:nodetypes="cc"
       style="fill:none;stroke:#0000ff;stroke-width:0.99999988;stroke-linecap:butt;stroke-linejoin:miter;stroke-miterlimit:4;stroke-opacity:1;stroke-dasharray:1, 2.00000003;stroke-dashoffset:0;marker-start:url(#Arrow1Lstartclj);marker-end:url(#DotLjx)"
       d="m 227.00563,937.01501 -162.77582,0"
       id="path3843"
       inkscape:connector-curvature="0" />
    <path
       inkscape:connector-curvature="0"
       id="path3845"
       d="m 256.97708,907.00956 -192.74727,0"
       style="fill:none;stroke:#0000ff;stroke-width:0.99999988;stroke-linecap:butt;stroke-linejoin:miter;stroke-miterlimit:4;stroke-opacity:1;stroke-dasharray:1, 2.00000003;stroke-dashoffset:0;marker-start:url(#Arrow1Lstart5qH);marker-end:url(#DotLbX)"
       sodipodi:nodetypes="cc" />
    <path
       sodipodi:nodetypes="cc"
       style="fill:none;stroke:#0000ff;stroke-width:0.99999988;stroke-linecap:butt;stroke-linejoin:miter;stroke-miterlimit:4;stroke-opacity:1;stroke-dasharray:1, 2.00000003;stroke-dashoffset:0;marker-start:url(#Arrow1Lstart8Id);marker-end:url(#DotLHB)"
       d="m 273.52728,890.33987 -209.29747,0"
       id="path3847"
       inkscape:connector-curvature="0" />
    <path
       inkscape:connector-curvature="0"
       id="path3849"
       d="m 309.26213,853.66655 -245.03232,0"
       style="fill:none;stroke:#0000ff;stroke-width:0.99999988;stroke-linecap:butt;stroke-linejoin:miter;stroke-miterlimit:4;stroke-opacity:1;stroke-dasharray:1, 2.00000003;stroke-dashoffset:0;marker-start:url(#Arrow1LstartTN9U);marker-end:url(#DotL0O)"
       sodipodi:nodetypes="cc" />
    <path
       sodipodi:nodetypes="cc"
       style="fill:none;stroke:#0000ff;stroke-width:0.99999988;stroke-linecap:butt;stroke-linejoin:miter;stroke-miterlimit:4;stroke-opacity:1;stroke-dasharray:1, 2.00000003;stroke-dashoffset:0;marker-start:url(#Arrow1LstartT56);marker-end:url(#DotLU4)"
       d="m 340.94278,823.66109 -276.71297,0"
       id="path3851"
       inkscape:connector-curvature="0" />
    <path
       inkscape:connector-curvature="0"
       id="path3853"
       d="m 373.27409,800.32351 -309.04428,0"
       style="fill:none;stroke:#0000ff;stroke-width:0.99999988;stroke-linecap:butt;stroke-linejoin:miter;stroke-miterlimit:4;stroke-opacity:1;stroke-dasharray:1, 2.00000003;stroke-dashoffset:0;marker-start:url(#Arrow1LstartxPe);marker-end:url(#DotLlL)"
       sodipodi:nodetypes="cc" />
    <path
       inkscape:connector-curvature="0"
       id="path3857"
       d="m 152.46477,997.03574 0,12.97016"
       style="fill:none;stroke:#00ff00;stroke-width:1;stroke-linecap:butt;stroke-linejoin:miter;stroke-miterlimit:4;stroke-opacity:1;stroke-dasharray:1, 2.00000004;stroke-dashoffset:0;marker-start:none;marker-end:url(#DiamondLJ)"
       sodipodi:nodetypes="cc" />
    <path
       sodipodi:nodetypes="cc"
       style="fill:none;stroke:#00ff00;stroke-width:1;stroke-linecap:butt;stroke-linejoin:miter;stroke-miterlimit:4;stroke-opacity:1;stroke-dasharray:1, 2.00000004;stroke-dashoffset:0;marker-start:none;marker-end:url(#DiamondLc)"
       d="m 189.5567,973.73762 0,36.26828"
       id="path3859"
       inkscape:connector-curvature="0" />
    <path
       inkscape:connector-curvature="0"
       id="path3861"
       d="m 229.83935,936.90958 -1.36488,73.09632"
       style="fill:none;stroke:#00ff00;stroke-width:1;stroke-linecap:butt;stroke-linejoin:miter;stroke-miterlimit:4;stroke-opacity:1;stroke-dasharray:1, 2.00000004;stroke-dashoffset:0;marker-start:none;marker-end:url(#DiamondLz)"
       sodipodi:nodetypes="cc" />
    <path
       sodipodi:nodetypes="cc"
       style="fill:none;stroke:#00ff00;stroke-width:1;stroke-linecap:butt;stroke-linejoin:miter;stroke-miterlimit:4;stroke-opacity:1;stroke-dasharray:1, 2.00000004;stroke-dashoffset:0;marker-start:none;marker-end:url(#DiamondLV)"
       d="m 259.39027,907.10347 0.0569,102.90243"
       id="path3863"
       inkscape:connector-curvature="0" />
    <path
       inkscape:connector-curvature="0"
       id="path3865"
       d="m 276.13141,889.42114 0,120.69906"
       style="fill:none;stroke:#00ff00;stroke-width:1;stroke-linecap:butt;stroke-linejoin:miter;stroke-miterlimit:4;stroke-opacity:1;stroke-dasharray:1, 2.00000004;stroke-dashoffset:0;marker-start:none;marker-end:url(#DiamondLl)"
       sodipodi:nodetypes="cc" />
    <path
       sodipodi:nodetypes="cc"
       style="fill:none;stroke:#00ff00;stroke-width:1;stroke-linecap:butt;stroke-linejoin:miter;stroke-miterlimit:4;stroke-opacity:1;stroke-dasharray:1, 2.00000004;stroke-dashoffset:0;marker-start:none;marker-end:url(#DiamondLB)"
       d="m 311.71982,853.78024 0,156.22566"
       id="path3867"
       inkscape:connector-curvature="0" />
    <path
       inkscape:connector-curvature="0"
       id="path3869"
       d="m 343.65266,823.61219 0.49778,186.39371"
       style="fill:none;stroke:#00ff00;stroke-width:1;stroke-linecap:butt;stroke-linejoin:miter;stroke-miterlimit:4;stroke-opacity:1;stroke-dasharray:1, 2.00000004;stroke-dashoffset:0;marker-start:none;marker-end:url(#DiamondLJT)"
       sodipodi:nodetypes="cc" />
    <path
       sodipodi:nodetypes="cc"
       style="fill:none;stroke:#00ff00;stroke-width:1;stroke-linecap:butt;stroke-linejoin:miter;stroke-miterlimit:4;stroke-opacity:1;stroke-dasharray:1, 2.00000004;stroke-dashoffset:0;marker-start:none;marker-end:url(#DiamondLo)"
       d="m 376.2486,800.46953 0.49778,209.53637"
       id="path3871"
       inkscape:connector-curvature="0" />
    <text
       xml:space="preserve"
       style="font-size:68.19628143px;font-style:normal;font-weight:normal;line-height:125%;letter-spacing:0px;word-spacing:0px;fill:#000000;fill-opacity:1;stroke:none;font-family:Sans"
       x="227.43204"
       y="1038.3967"
       id="text3889"
       sodipodi:linespacing="125%"><tspan
         sodipodi:role="line"
         id="tspan3891"
         x="227.43204"
         y="1038.3967"
         style="font-size:15.34416294px;font-style:normal;font-variant:normal;font-weight:normal;font-stretch:normal;font-family:TeX Gyre Pagella;-inkscape-font-specification:TeX Gyre Pagella"><tspan
   id="tspan3895"
   style="font-style:italic">x</tspan><tspan
   id="tspan3893"
   style="font-size:9.97384644px;font-style:italic;baseline-shift:sub">i</tspan> ~<tspan
   id="tspan3899"
   style="font-style:italic">N</tspan>(0, 1)</tspan></text>
    <text
       sodipodi:linespacing="125%"
       id="text3901"
       y="807.80396"
       x="394.42804"
       style="font-size:70.58608246px;font-style:normal;font-weight:normal;line-height:125%;letter-spacing:0px;word-spacing:0px;fill:#0000fb;fill-opacity:1;stroke:none;font-family:Sans"
       xml:space="preserve"><tspan
         style="font-size:15.88186932px;font-style:normal;font-variant:normal;font-weight:normal;font-stretch:normal;fill:#0000fb;fill-opacity:1;font-family:TeX Gyre Pagella;-inkscape-font-specification:TeX Gyre Pagella"
         y="807.80396"
         x="394.42804"
         id="tspan3903"
         sodipodi:role="line"><tspan
   style="font-style:italic;fill:#0000fb;fill-opacity:1"
   id="tspan3905">CDF(x<tspan
   id="tspan4057"
   style="font-size:10.32336044px;baseline-shift:sub">i</tspan></tspan>)</tspan></text>
    <text
       xml:space="preserve"
       style="font-size:67.80401611px;font-style:normal;font-weight:normal;line-height:125%;letter-spacing:0px;word-spacing:0px;fill:#00ff00;fill-opacity:1;stroke:none;font-family:Sans"
       x="396.61414"
       y="997.18616"
       id="text4047"
       sodipodi:linespacing="125%"><tspan
         sodipodi:role="line"
         id="tspan4049"
         x="396.61414"
         y="997.18616"
         style="font-size:15.25590324px;font-style:normal;font-variant:normal;font-weight:normal;font-stretch:normal;fill:#00ff00;fill-opacity:1;font-family:TeX Gyre Pagella;-inkscape-font-specification:TeX Gyre Pagella"><tspan
   id="tspan4051"
   style="font-style:italic;fill:#00ff00;fill-opacity:1">PDF(x<tspan
   id="tspan4053"
   style="font-size:9.9164772px;baseline-shift:sub">i</tspan></tspan>)</tspan></text>
  </g>
</svg>
